# xmcd
#
# Track frame offsets: 
#        150
#        12883
#        21416
#        39998
#        49414
#
# Disc length: 1288 seconds
#
# Revision: 0
# Processed by: cddbd v1.5.2PL0 Copyright (c) Steve Scherf et al.
# Submitted via: ExactAudioCopy v0.95b3
#
DISCID=38050605
DTITLE=Various Artist - poczuj bluesa z Rawa Blues
DYEAR=1900
DGENRE=
TTITLE0=Canned Heat - Wait and See
TTITLE1=Cephas and Wiggins - Action Man
TTITLE2=Michael Hill's Blues Mob - Bluestime in America
TTITLE3=Big Town Playboys - Do what You want to do
TTITLE4=Irek Dudek Symphonic Blues - Blues in A (dla Dorotki)
EXTD=
EXTT0=
EXTT1=
EXTT2=
EXTT3=
EXTT4=
PLAYORDER=
